HIERARCHY
ROOT Hips
{
	OFFSET 0.000000 0.000000 0.000000
	CHANNELS 6 Xposition Yposition Zposition Zrotation Yrotation Xrotation 
	JOINT LowerBack
	{
		OFFSET 0.000000 0.000000 0.000000
		CHANNELS 3 Zrotation Yrotation Xrotation
		JOINT Spine
		{
			OFFSET 0.028270 2.035590 -0.193380
			CHANNELS 3 Zrotation Yrotation Xrotation
			JOINT Spine1
			{
				OFFSET 0.056720 2.048850 -0.042750
				CHANNELS 3 Zrotation Yrotation Xrotation
				JOINT Neck
				{
					OFFSET 0.000000 0.000000 0.000000
					CHANNELS 3 Zrotation Yrotation Xrotation
					JOINT Neck1
					{
						OFFSET -0.054170 1.746240 0.172020
						CHANNELS 3 Zrotation Yrotation Xrotation
						JOINT Head
						{
							OFFSET 0.104070 1.761360 -0.123970
							CHANNELS 3 Zrotation Yrotation Xrotation
							End Site
							{
								OFFSET 0.000000 0.000000 0.000000
							}
						}
					}
				}
				JOINT LeftShoulder
				{
					OFFSET 0.000000 0.000000 0.000000
					CHANNELS 3 Zrotation Yrotation Xrotation
					JOINT LeftArm
					{
						OFFSET 3.362410 1.200890 -0.311210
						CHANNELS 3 Zrotation Yrotation Xrotation
						JOINT LeftForeArm
						{
							OFFSET 4.983000 -0.000000 -0.000000
							CHANNELS 3 Zrotation Yrotation Xrotation
							JOINT LeftHand
							{
								OFFSET 3.483560 -0.000000 -0.000000
								CHANNELS 3 Zrotation Yrotation Xrotation
								JOINT LeftFingerBase
								{
									OFFSET 0.000000 0.000000 0.000000
									CHANNELS 3 Zrotation Yrotation Xrotation
									JOINT LeftHandIndex1
									{
										OFFSET 0.715260 -0.000000 -0.000000
										CHANNELS 3 Zrotation Yrotation Xrotation
										End Site
										{
											OFFSET 0.000000 0.000000 0.000000
										}
									}
								}
								JOINT LThumb
								{
									OFFSET 0.000000 0.000000 0.000000
									CHANNELS 3 Zrotation Yrotation Xrotation
									End Site
									{
										OFFSET 0.000000 0.000000 0.000000
									}
								}
							}
						}
					}
				}
				JOINT RightShoulder
				{
					OFFSET 0.000000 0.000000 0.000000
					CHANNELS 3 Zrotation Yrotation Xrotation
					JOINT RightArm
					{
						OFFSET -3.136600 1.374050 -0.404650
						CHANNELS 3 Zrotation Yrotation Xrotation
						JOINT RightForeArm
						{
							OFFSET -5.241900 -0.000000 -0.000000
							CHANNELS 3 Zrotation Yrotation Xrotation
							JOINT RightHand
							{
								OFFSET -3.444170 -0.000000 -0.000000
								CHANNELS 3 Zrotation Yrotation Xrotation
								JOINT RightFingerBase
								{
									OFFSET 0.000000 0.000000 0.000000
									CHANNELS 3 Zrotation Yrotation Xrotation
									JOINT RightHandIndex1
									{
										OFFSET -0.622530 -0.000000 -0.000000
										CHANNELS 3 Zrotation Yrotation Xrotation
										End Site
										{
											OFFSET 0.000000 0.000000 0.000000
										}
									}
								}
								JOINT RThumb
								{
									OFFSET 0.000000 0.000000 0.000000
									CHANNELS 3 Zrotation Yrotation Xrotation
									End Site
									{
										OFFSET 0.000000 0.000000 0.000000
									}
								}
							}
						}
					}
				}
			}
		}
	}
}
}
MOTION
Frames: 17
Frame Time: 0.008333
1.210959 17.218232 -1.228716 117.152494 -78.962784 -116.600818 -10.659306 -0.016760 6.332559 -2.924746 0.586007 -2.366960 -6.970967 0.494955 -1.771815 10.792312 -2.120930 -5.322476 -4.209782 -0.331323 0.377784 0.000000 0.000000 0.000000 -5.417750 4.400694 2.269572 -76.745256 8.584065 12.925283 -2.851217 -22.058986 0.001276 2.509747 -2.082142 -0.045021 -0.002272 -0.028241 -0.000000 0.000000 0.000000 0.000000 0.000000 0.000000 0.000000 19.392228 2.457032 1.888702 71.973996 11.565643 9.284180 3.142509 19.630496 0.015155 2.149001 9.569102 0.178537 0.054320 -0.131731 0.000000 0.000000 0.000000 0.000000 0.000000 0.000000 0.000000 
1.202939 17.214013 -1.226391 117.457841 -79.124686 -116.773613 -10.480749 -0.109824 6.108439 -2.879314 0.491326 -2.399571 -6.982373 0.398419 -1.713369 10.828301 -2.172629 -5.355136 -4.219019 -0.331993 0.374464 0.000000 0.000000 0.000000 -5.502232 4.608874 2.256912 -76.917183 8.672204 12.496826 -2.851520 -22.016680 0.001231 2.429107 -2.027532 -0.042422 -0.002211 -0.028231 -0.000000 0.000000 0.000000 0.000000 0.000000 0.000000 0.000000 19.492981 2.360136 1.846002 72.146434 11.622731 9.760374 3.180513 19.585634 0.015576 2.724463 9.284189 0.220831 0.051577 -0.128115 0.000000 0.000000 0.000000 0.000000 0.000000 0.000000 0.000000 
1.195746 17.209386 -1.224995 117.441858 -79.332522 -116.722999 -10.306363 -0.212561 5.988075 -2.837517 0.386359 -2.409170 -6.996994 0.293395 -1.665535 10.883260 -2.289038 -5.394495 -4.226504 -0.332390 0.368251 0.000000 0.000000 0.000000 -5.540053 4.709675 2.247776 -77.073952 8.783988 12.141206 -2.851648 -22.007707 0.001195 2.355100 -1.981796 -0.040222 -0.002216 -0.028294 -0.000000 0.000000 0.000000 0.000000 0.000000 0.000000 0.000000 19.608889 2.190170 1.811555 72.328858 11.704088 10.174509 3.211061 19.566657 0.015873 3.224498 9.032358 0.255127 0.049000 -0.125027 0.000000 0.000000 0.000000 0.000000 0.000000 0.000000 0.000000 
1.189461 17.204901 -1.224528 116.950755 -79.572723 -116.284004 -10.155730 -0.325565 5.962589 -2.804210 0.270934 -2.398253 -7.013867 0.179593 -1.631857 10.953338 -2.459611 -5.434443 -4.232437 -0.332608 0.360855 0.000000 0.000000 0.000000 -5.533313 4.689921 2.243128 -77.207534 8.919704 11.880442 -2.852246 -22.031685 0.001167 2.284855 -1.948820 -0.038321 -0.002261 -0.028419 -0.000000 0.000000 0.000000 0.000000 0.000000 0.000000 0.000000 19.735236 1.956634 1.784280 72.520766 11.781199 10.506564 3.230630 19.588920 0.016048 3.613849 8.838506 0.280322 0.046738 -0.122669 0.000000 0.000000 0.000000 0.000000 0.000000 0.000000 0.000000 
1.183675 17.201216 -1.224854 115.903335 -79.844937 -115.348424 -10.025012 -0.448825 6.010826 -2.778513 0.144885 -2.372239 -7.032025 0.056471 -1.613043 11.031556 -2.663862 -5.469530 -4.236874 -0.332720 0.354060 0.000000 0.000000 0.000000 -5.488619 4.559752 2.243662 -77.310513 9.066098 11.740265 -2.853768 -22.077227 0.001143 2.216943 -1.931934 -0.036920 -0.002373 -0.028533 -0.000000 0.000000 0.000000 0.000000 0.000000 0.000000 0.000000 19.861354 1.679831 1.761017 72.722085 11.817324 10.721267 3.237139 19.669556 0.016111 3.872395 8.719707 0.296719 0.044870 -0.121164 0.000000 0.000000 0.000000 0.000000 0.000000 0.000000 0.000000 
1.178065 17.198863 -1.225908 114.283121 -80.148175 -113.871740 -9.904453 -0.580090 6.104510 -2.758123 0.010146 -2.337487 -7.051486 -0.074481 -1.606680 11.113703 -2.899688 -5.498578 -4.239975 -0.332791 0.348688 0.000000 0.000000 0.000000 -5.413337 4.327562 2.246913 -77.376569 9.219654 11.717903 -2.856282 -22.142297 0.001123 2.147967 -1.931049 -0.035718 -0.002548 -0.028648 -0.000000 0.000000 0.000000 0.000000 0.000000 0.000000 0.000000 19.983395 1.360977 1.739589 72.928080 11.803638 10.843479 3.230207 19.805851 0.016077 3.977235 8.694706 0.304018 0.043605 -0.120566 0.000000 0.000000 0.000000 0.000000 0.000000 0.000000 0.000000 
1.172117 17.198324 -1.227507 112.150655 -80.475023 -111.883820 -9.782928 -0.714936 6.212518 -2.740215 -0.129248 -2.300513 -7.072066 -0.209736 -1.608448 11.194754 -3.159055 -5.521330 -4.241722 -0.332854 0.345262 0.000000 0.000000 0.000000 -5.315528 4.018898 2.250135 -77.402105 9.369106 11.805309 -2.859906 -22.219612 0.001106 2.075606 -1.945064 -0.034816 -0.002809 -0.028763 -0.000000 0.000000 0.000000 0.000000 0.000000 0.000000 0.000000 20.095298 1.009636 1.717267 73.135265 11.731287 10.889092 3.210744 19.993389 0.015957 3.924175 8.769150 0.302521 0.043046 -0.120826 0.000000 0.000000 0.000000 0.000000 0.000000 0.000000 0.000000 
1.165294 17.199864 -1.229576 109.637501 -80.806675 -109.494567 -9.656045 -0.846212 6.307158 -2.723168 -0.266305 -2.267664 -7.093280 -0.342862 -1.616270 11.269629 -3.422903 -5.534628 -4.242073 -0.332965 0.344969 0.000000 0.000000 0.000000 -5.201323 3.661920 2.251404 -77.385998 9.507914 11.981998 -2.864985 -22.302980 0.001094 1.998323 -1.970395 -0.033911 -0.003191 -0.028894 -0.000000 0.000000 0.000000 0.000000 0.000000 0.000000 0.000000 20.189155 0.649668 1.692000 73.345017 11.582607 10.849130 3.180488 20.228288 0.015759 3.731044 8.935453 0.292924 0.043125 -0.121830 0.000000 0.000000 0.000000 0.000000 0.000000 0.000000 0.000000 
1.157109 17.203584 -1.231961 106.934696 -81.119106 -106.880653 -9.526785 -0.966575 6.368504 -2.706709 -0.393488 -2.242448 -7.113900 -0.466608 -1.624156 11.334655 -3.685098 -5.541207 -4.240621 -0.333081 0.347226 0.000000 0.000000 0.000000 -5.075831 3.295661 2.247606 -77.329416 9.620126 12.226349 -2.871838 -22.383017 0.001087 1.915869 -2.003061 -0.033108 -0.003746 -0.029059 -0.000000 0.000000 0.000000 0.000000 0.000000 0.000000 0.000000 20.260194 0.292166 1.662095 73.556011 11.363280 10.747487 3.142444 20.494290 0.015496 3.420124 9.180317 0.275529 0.043817 -0.123376 0.000000 0.000000 0.000000 0.000000 0.000000 0.000000 0.000000 
1.147237 17.209305 -1.234418 104.284260 -81.390431 -104.283125 -9.401984 -1.068883 6.386042 -2.691200 -0.503208 -2.227437 -7.132231 -0.573674 -1.630977 11.384954 -3.920089 -5.538387 -4.236999 -0.333195 0.352703 0.000000 0.000000 0.000000 -4.942874 2.957121 2.238533 -77.237373 9.694000 12.511150 -2.881043 -22.450056 0.001091 1.829180 -2.038339 -0.032202 -0.004535 -0.029237 -0.000000 0.000000 0.000000 0.000000 0.000000 0.000000 0.000000 20.299146 -0.029464 1.626437 73.772584 11.058452 10.557030 3.099630 20.787445 0.015183 3.039238 9.473275 0.252237 0.044846 -0.125230 0.000000 0.000000 0.000000 0.000000 0.000000 0.000000 0.000000 
1.135426 17.216662 -1.236695 101.929484 -81.607531 -101.948343 -9.288784 -1.148943 6.356816 -2.677109 -0.590617 -2.221474 -7.146179 -0.659052 -1.628837 11.418906 -4.144593 -5.535262 -4.230339 -0.333157 0.358902 0.000000 0.000000 0.000000 -4.807884 2.676171 2.220542 -77.114978 9.719444 12.799758 -2.892557 -22.502309 0.001104 1.739137 -2.070470 -0.031096 -0.005579 -0.029467 -0.000000 0.000000 0.000000 0.000000 0.000000 0.000000 0.000000 20.306147 -0.329337 1.585355 73.988127 10.707944 10.355156 3.056449 21.075070 0.014848 2.610768 9.795996 0.223443 0.046291 -0.127126 0.000000 0.000000 0.000000 0.000000 0.000000 0.000000 0.000000 
1.121492 17.225212 -1.238461 100.089403 -81.768524 -100.102947 -9.189919 -1.204111 6.282622 -2.664204 -0.652551 -2.224096 -7.154050 -0.719594 -1.617080 11.433432 -4.343449 -5.531959 -4.220297 -0.332926 0.365582 0.000000 0.000000 0.000000 -4.673936 2.478359 2.194595 -76.969318 9.688924 13.066699 -2.906657 -22.533917 0.001131 1.649393 -2.095709 -0.029888 -0.006924 -0.029705 -0.000000 0.000000 0.000000 0.000000 0.000000 0.000000 0.000000 20.275801 -0.586702 1.539054 74.204040 10.306368 10.120954 3.016083 21.357790 0.014517 2.189307 10.106525 0.192550 0.047842 -0.128817 0.000000 0.000000 0.000000 0.000000 0.000000 0.000000 0.000000 
1.105242 17.234405 -1.239370 98.905126 -81.880366 -98.894261 -9.103763 -1.235434 6.167575 -2.651600 -0.689712 -2.233540 -7.154462 -0.755862 -1.593068 11.427232 -4.521133 -5.533081 -4.206435 -0.332415 0.371371 0.000000 0.000000 0.000000 -4.545973 2.376528 2.160701 -76.806996 9.602769 13.280398 -2.923177 -22.547333 0.001172 1.563645 -2.111037 -0.028580 -0.008573 -0.029933 -0.000000 0.000000 0.000000 0.000000 0.000000 0.000000 0.000000 20.207516 -0.804998 1.488703 74.415510 9.875628 9.890323 2.981854 21.617269 0.014230 1.806683 10.381164 0.162455 0.049427 -0.130098 0.000000 0.000000 0.000000 0.000000 0.000000 0.000000 0.000000 
1.086825 17.243669 -1.239071 98.422935 -81.955457 -98.377588 -9.023269 -1.246238 6.019180 -2.637582 -0.705408 -2.247729 -7.146636 -0.771010 -1.556129 11.399768 -4.679116 -5.541930 -4.188674 -0.331569 0.375232 0.000000 0.000000 0.000000 -4.428515 2.376453 2.120237 -76.633589 9.461712 13.418482 -2.941906 -22.544695 0.001228 1.486398 -2.115801 -0.027169 -0.010522 -0.030096 -0.000000 0.000000 0.000000 0.000000 0.000000 0.000000 0.000000 20.102000 -0.985615 1.435521 74.617846 9.431118 9.681591 2.956035 21.845144 0.014011 1.492871 10.595559 0.136159 0.050922 -0.130822 0.000000 0.000000 0.000000 0.000000 0.000000 0.000000 0.000000 
1.066117 17.252599 -1.237372 98.605870 -82.005062 -98.516346 -8.942342 -1.240533 5.840943 -2.621046 -0.703877 -2.266038 -7.131066 -0.769280 -1.507766 11.352674 -4.806659 -5.558514 -4.167731 -0.330419 0.377014 0.000000 0.000000 0.000000 -4.321869 2.482223 2.076134 -76.451431 9.262809 13.485135 -2.962640 -22.522193 0.001303 1.426131 -2.113115 -0.026159 -0.012790 -0.030109 -0.000000 0.000000 0.000000 0.000000 0.000000 0.000000 0.000000 19.963082 -1.117501 1.380224 74.807921 8.964131 9.465303 2.939534 22.054105 0.013871 1.284600 10.722601 0.117864 0.052054 -0.130894 0.000000 0.000000 0.000000 0.000000 0.000000 0.000000 0.000000 
1.043262 17.260907 -1.234250 99.339925 -82.038501 -99.196716 -8.855978 -1.223296 5.636701 -2.601489 -0.690427 -2.287089 -7.109526 -0.755791 -1.447647 11.291925 -4.947018 -5.589779 -4.144368 -0.328984 0.375067 0.000000 0.000000 0.000000 -4.233447 2.647284 2.026204 -76.261421 9.049440 13.431720 -2.983727 -22.515584 0.001391 1.384728 -2.103714 -0.025247 -0.015195 -0.030107 -0.000000 0.000000 0.000000 0.000000 0.000000 0.000000 0.000000 19.807497 -1.252401 1.327856 74.968783 8.528607 9.351723 2.933569 22.215300 0.013825 1.158798 10.768224 0.106265 0.053152 -0.130280 0.000000 0.000000 0.000000 0.000000 0.000000 0.000000 0.000000 
1.018210 17.268279 -1.229294 100.497529 -82.073180 -100.291787 -8.746503 -1.200853 5.412343 -2.575364 -0.672287 -2.309923 -7.082121 -0.737771 -1.376896 11.215915 -5.058385 -5.632379 -4.119225 -0.327277 0.370035 0.000000 0.000000 0.000000 -4.160196 2.911167 1.976678 -76.062194 8.774074 13.336642 -3.005391 -22.485933 0.001504 1.375221 -2.096516 -0.025033 -0.017905 -0.029808 -0.000000 0.000000 0.000000 0.000000 0.000000 0.000000 0.000000 19.629498 -1.345709 1.274265 75.105304 8.078722 9.230440 2.937013 22.368651 0.013845 1.154985 10.711050 0.105264 0.053735 -0.128953 0.000000 0.000000 0.000000 0.000000 0.000000 0.000000 0.000000 
